# Blender 5.1.1
# www.blender.org
mtllib rove_flipper.mtl
o flipper_fr_visual_1
v 0.063237 0.061627 -0.000000
v 0.063237 0.061627 -0.041503
v 0.034962 0.080520 -0.041503
v -0.363481 -0.053890 0.000000
v -0.383784 -0.047099 0.000000
v -0.383784 -0.047099 -0.041503
v 0.082130 0.033352 -0.000000
v 0.082130 0.033352 -0.041503
v -0.396972 -0.034291 0.000000
v -0.396972 -0.034291 -0.041503
v 0.088764 -0.000000 -0.000000
v 0.088764 -0.000000 -0.041503
v -0.409586 0.000000 0.000000
v -0.406668 0.017708 0.000000
v -0.406668 0.017708 -0.041503
v -0.406668 -0.017708 0.000000
v -0.406668 -0.017708 -0.041503
v 0.082130 -0.033352 -0.000000
v 0.082130 -0.033352 -0.041503
v -0.396972 0.034291 0.000000
v -0.383784 0.047099 0.000000
v -0.383784 0.047099 -0.041503
v -0.396972 0.034291 -0.041503
v 0.063237 -0.061627 -0.000000
v 0.063237 -0.061627 -0.041503
v -0.363481 0.053891 0.000000
v -0.363481 0.053891 -0.041503
v -0.409586 0.000000 -0.041503
v 0.034962 -0.080520 -0.000000
v 0.034962 -0.080520 -0.041503
v 0.001610 0.087154 -0.000000
v 0.001610 0.087154 -0.041503
v 0.001610 -0.087154 -0.000000
v 0.001610 -0.087154 -0.041503
v 0.034962 0.080520 -0.000000
v -0.363481 -0.053890 -0.041503
v 0.000000 -0.000000 -0.041503
v 0.000000 0.022746 -0.000000
v 0.016084 0.016084 -0.000000
v 0.022746 -0.000000 -0.000000
v 0.016084 -0.016084 -0.000000
v 0.000000 -0.022746 -0.000000
v -0.016084 -0.016084 -0.000000
v -0.022746 -0.000000 -0.000000
v -0.016084 0.016084 -0.000000
v 0.016084 0.016084 0.018200
v 0.022746 -0.000000 0.018200
v -0.016084 0.016084 0.018200
v -0.016084 -0.016084 0.018200
v -0.022746 -0.000000 0.018200
v 0.016084 -0.016084 0.018200
v 0.000000 0.022746 0.018200
v 0.000000 -0.022746 0.018200
vn 0.7071 0.7071 -0.0000
vn 0.3827 0.9239 -0.0000
vn -0.2054 -0.9787 -0.0000
vn -0.5200 -0.8542 -0.0000
vn 0.9239 0.3827 -0.0000
vn -0.7872 -0.6167 -0.0000
vn 1.0000 -0.0000 -0.0000
vn -1.0000 -0.0000 -0.0000
vn -0.9407 0.3393 -0.0000
vn -0.9407 -0.3393 -0.0000
vn 0.9239 -0.3827 -0.0000
vn -0.7872 0.6167 -0.0000
vn -0.5200 0.8542 -0.0000
vn 0.7071 -0.7071 -0.0000
vn -0.2054 0.9787 -0.0000
vn 0.3827 -0.9239 -0.0000
vn 0.0527 0.9986 -0.0000
vn 0.0527 -0.9986 -0.0000
vn -0.0000 -0.0000 -1.0000
vn -0.0000 -0.0000 1.0000
vn -0.0000 1.0000 -0.0000
vn -0.7071 0.7071 -0.0000
vn -0.7071 -0.7071 -0.0000
vn -0.0000 -1.0000 -0.0000
s 1
usemtl rubber_color
f 1//1 2//1 3//2
f 4//3 5//4 6//4
f 1//1 7//5 8//5
f 5//4 9//6 10//6
f 7//5 11//7 12//7
f 13//8 14//9 15//9
f 9//6 16//10 17//10
f 11//7 18//11 19//11
f 20//12 21//13 22//13
f 14//9 20//12 23//12
f 18//11 24//14 25//14
f 21//13 26//15 27//15
f 13//8 28//8 17//10
f 24//14 29//16 30//16
f 26//15 31//17 32//17
f 29//16 33//18 34//18
f 35//2 3//2 32//17
f 33//18 4//3 36//3
f 37//19 32//19 3//19
f 3//19 2//19 37//19
f 2//19 8//19 37//19
f 8//19 12//19 37//19
f 12//19 19//19 37//19
f 19//19 25//19 37//19
f 25//19 30//19 37//19
f 30//19 34//19 37//19
f 34//19 36//19 37//19
f 36//19 6//19 37//19
f 6//19 10//19 37//19
f 10//19 17//19 37//19
f 17//19 28//19 37//19
f 28//19 15//19 37//19
f 15//19 23//19 37//19
f 23//19 22//19 37//19
f 22//19 27//19 37//19
f 32//19 37//19 27//19
f 35//20 31//20 38//20
f 1//20 35//20 39//20
f 38//20 39//20 35//20
f 39//20 40//20 1//20
f 1//20 40//20 7//20
f 7//20 40//20 11//20
f 11//20 40//20 18//20
f 41//20 24//20 40//20
f 18//20 40//20 24//20
f 42//20 33//20 29//20
f 42//20 29//20 41//20
f 29//20 24//20 41//20
f 33//20 42//20 4//20
f 42//20 43//20 4//20
f 44//20 5//20 4//20
f 44//20 4//20 43//20
f 5//20 44//20 9//20
f 9//20 44//20 16//20
f 16//20 44//20 13//20
f 13//20 44//20 14//20
f 14//20 44//20 20//20
f 20//20 44//20 21//20
f 44//20 45//20 21//20
f 45//20 38//20 26//20
f 26//20 21//20 45//20
f 31//20 26//20 38//20
f 39//1 46//1 47//7
f 38//21 45//22 48//22
f 43//23 49//23 50//8
f 40//7 51//14 41//14
f 38//21 52//21 46//1
f 44//8 50//8 48//22
f 43//23 42//24 53//24
f 42//24 41//14 51//14
f 50//20 47//20 52//20
f 1//1 3//2 35//2
f 4//3 6//4 36//3
f 1//1 8//5 2//1
f 5//4 10//6 6//4
f 7//5 12//7 8//5
f 13//8 15//9 28//8
f 9//6 17//10 10//6
f 11//7 19//11 12//7
f 20//12 22//13 23//12
f 14//9 23//12 15//9
f 18//11 25//14 19//11
f 21//13 27//15 22//13
f 13//8 17//10 16//10
f 24//14 30//16 25//14
f 26//15 32//17 27//15
f 29//16 34//18 30//16
f 35//2 32//17 31//17
f 33//18 36//3 34//18
f 39//1 47//7 40//7
f 38//21 48//22 52//21
f 43//23 50//8 44//8
f 40//7 47//7 51//14
f 38//21 46//1 39//1
f 44//8 48//22 45//22
f 43//23 53//24 49//23
f 42//24 51//14 53//24
f 53//20 50//20 49//20
f 50//20 52//20 48//20
f 52//20 47//20 46//20
f 47//20 53//20 51//20
f 53//20 47//20 50//20
