# Blender 5.1.1
# www.blender.org
mtllib RoveCore.mtl
o Cube
v -0.096024 0.062887 -0.236167
v -0.096024 2.553226 -0.236167
v -0.096024 0.062887 3.313562
v -0.096024 2.553226 3.313562
v 3.324320 1.162534 -0.236167
v 3.324320 0.062887 -0.236167
v 3.324320 1.162534 3.313562
v 3.324320 0.062887 3.313562
v -3.516368 1.028069 -0.236167
v -3.516368 0.062887 -0.236167
v -3.516368 1.028069 3.313562
v -3.516368 0.062887 3.313562
vn 0.3767 0.9264 -0.0000
vn -0.0000 -1.0000 -0.0000
vn -0.0000 -0.0000 1.0000
vn -0.0000 -0.0000 -1.0000
vn -0.4073 0.9133 -0.0000
vn 1.0000 -0.0000 -0.0000
vn -1.0000 -0.0000 -0.0000
vt 0.375000 0.000000
vt 0.500000 0.000000
vt 0.500000 0.250000
vt 0.375000 0.250000
vt 0.500000 0.500000
vt 0.375000 0.500000
vt 0.625000 0.500000
vt 0.625000 0.625000
vt 0.375000 0.625000
vt 0.125000 0.500000
vt 0.125000 0.625000
vt 0.625000 0.000000
vt 0.625000 0.250000
vt 0.625000 0.750000
vt 0.375000 0.750000
vt 0.625000 1.000000
vt 0.375000 1.000000
vt 0.125000 0.750000
vt 0.875000 0.500000
vt 0.875000 0.750000
s 0
usemtl Material
f 5/1/1 2/2/1 4/3/1 7/4/1
f 10/4/2 1/3/2 3/5/2 12/6/2
f 8/6/3 7/7/3 4/8/3 3/9/3
f 10/10/4 9/6/4 2/9/4 1/11/4
f 2/2/5 9/12/5 11/13/5 4/3/5
f 1/3/2 6/13/2 8/7/2 3/5/2
f 3/9/3 4/8/3 11/14/3 12/15/3
f 6/15/6 5/14/6 7/16/6 8/17/6
f 1/11/4 2/9/4 5/15/4 6/18/4
f 12/7/7 11/19/7 9/20/7 10/14/7
